<?xml version="1.0" standalone="no"?>
<!DOCTYPE svg PUBLIC "-//W3C//DTD SVG 20010904//EN"
 "http://www.w3.org/TR/2001/REC-SVG-20010904/DTD/svg10.dtd">
<svg version="1.0" xmlns="http://www.w3.org/2000/svg"
 width="167.000000pt" height="167.000000pt" viewBox="0 0 167.000000 167.000000"
 preserveAspectRatio="xMidYMid meet">

<g transform="translate(0.000000,167.000000) scale(0.100000,-0.100000)"
fill="#000000" stroke="none">
<path d="M358 1660 c-113 -19 -245 -115 -302 -220 -51 -93 -56 -147 -56 -600
0 -228 4 -441 10 -473 29 -179 183 -332 360 -357 84 -12 846 -12 930 0 177 25
331 178 360 357 6 32 10 245 10 473 0 453 -5 507 -56 600 -36 66 -130 155
-198 186 -30 14 -81 29 -113 34 -69 12 -877 11 -945 0z m1013 -428 c-15 -170
-39 -273 -91 -379 -51 -104 -123 -183 -202 -222 -34 -17 -69 -31 -79 -31 -58
0 -48 -15 46 -66 l98 -52 -64 -6 c-35 -3 -127 -8 -204 -11 -77 -3 -182 -8
-234 -11 -88 -6 -93 -5 -88 12 44 149 100 313 110 317 6 3 28 12 48 21 l37 15
101 -70 c56 -38 105 -68 110 -65 4 3 21 48 36 101 l28 95 72 59 c121 99 211
234 257 384 12 39 23 66 26 59 2 -7 -1 -74 -7 -150z m-251 -19 c0 -4 -23 -78
-50 -165 l-51 -158 -49 -25 -49 -25 -102 71 c-71 51 -103 68 -109 60 -4 -7
-18 -51 -31 -97 -20 -73 -29 -89 -59 -111 -150 -112 -237 -234 -301 -418 -24
-68 -28 -75 -28 -45 -1 79 21 280 39 355 54 220 195 385 353 411 20 4 37 9 37
13 0 4 -46 30 -102 58 l-103 52 55 1 c62 2 531 26 543 29 4 0 7 -2 7 -6z"/>
</g>
</svg>
